<svg width="25" height="25" viewBox="0 0 25 25" fill="none" xmlns="http://www.w3.org/2000/svg">
<path d="M20.7854 5.25769C19.2318 4.5748 17.5706 4.07848 15.834 3.7959C15.6206 4.15818 15.3715 4.64544 15.1997 5.03308C13.3536 4.77224 11.5244 4.77224 9.71223 5.03308C9.54047 4.64544 9.28559 4.15818 9.07045 3.7959C7.33188 4.07848 5.66883 4.57661 4.11527 5.26132C0.981722 9.71009 0.132267 14.0484 0.556995 18.3251C2.63533 19.7832 4.64948 20.669 6.62965 21.2486C7.11857 20.6165 7.55462 19.9445 7.93027 19.2362C7.21484 18.9808 6.52961 18.6656 5.88213 18.2997C6.05391 18.1802 6.22192 18.0552 6.38426 17.9266C10.3333 19.6619 14.624 19.6619 18.5258 17.9266C18.69 18.0552 18.858 18.1802 19.0279 18.2997C18.3786 18.6674 17.6915 18.9826 16.976 19.238C17.3517 19.9445 17.7858 20.6183 18.2766 21.2504C20.2587 20.6708 22.2747 19.7851 24.3531 18.3251C24.8514 13.3673 23.5017 9.06885 20.7854 5.25769ZM8.46826 15.6949C7.2828 15.6949 6.31064 14.6552 6.31064 13.3891C6.31064 12.1229 7.26203 11.0813 8.46826 11.0813C9.6745 11.0813 10.6466 12.1211 10.6259 13.3891C10.6278 14.6552 9.6745 15.6949 8.46826 15.6949ZM16.4418 15.6949C15.2564 15.6949 14.2842 14.6552 14.2842 13.3891C14.2842 12.1229 15.2356 11.0813 16.4418 11.0813C17.648 11.0813 18.6202 12.1211 18.5994 13.3891C18.5994 14.6552 17.648 15.6949 16.4418 15.6949Z" fill="#040404"/>
</svg>
