<svg width="40" height="40" viewBox="0 0 40 40" fill="none" xmlns="http://www.w3.org/2000/svg">
<g clip-path="url(#clip0)">
<path d="M20 40C9 40 0 31 0 20C0 9 9 0 20 0C31 0 40 9 40 20C40 31 31 40 20 40ZM20 0.625C9.3125 0.625 0.625 9.3125 0.625 20C0.625 30.6875 9.3125 39.375 20 39.375C30.6875 39.375 39.375 30.6875 39.375 20C39.375 9.3125 30.6875 0.625 20 0.625Z" fill="#D1D3D4"/>
<path d="M20 0.625C9.3125 0.625 0.625 9.3125 0.625 20C0.625 30.6875 9.3125 39.375 20 39.375C30.6875 39.375 39.375 30.6875 39.375 20C39.375 9.3125 30.6875 0.625 20 0.625Z" fill="white"/>
<path d="M20 8L19.8125 8.5625V24.4375L20 24.5625L27.375 20.25L20 8Z" fill="#343434"/>
<path d="M20 8L12.625 20.25L20 24.5625V16.875V8Z" fill="#8C8C8C"/>
<path d="M20 26L19.9375 26.0625V31.75L20 32L27.375 21.625L20 26Z" fill="#3C3C3B"/>
<path d="M20 32V26L12.625 21.625L20 32Z" fill="#8C8C8C"/>
<path d="M20 24.5625L27.375 20.25L20 16.875V24.5625Z" fill="#141414"/>
<path d="M12.625 20.25L20 24.5625V16.875L12.625 20.25Z" fill="#393939"/>
</g>
<defs>
<clipPath id="clip0">
<rect width="40" height="40" fill="white"/>
</clipPath>
</defs>
</svg>