<svg width="20" height="20" viewBox="0 0 20 20" fill="none" xmlns="http://www.w3.org/2000/svg">
<rect width="20" height="20" rx="10" fill="#F2E041" fill-opacity="0.2"/>
<path d="M15.8327 9.99975C15.8329 13.223 13.2183 15.8342 9.99947 15.8333C6.77624 15.8335 4.16505 13.219 4.16602 10.0002C4.16584 6.77694 6.77594 4.16678 9.99918 4.16663C13.2169 4.16311 15.8325 6.77648 15.8327 9.99975Z" fill="url(#paint0_linear_3454_97556)"/>
<path d="M9.99955 15.5833H9.99946C6.91436 15.5835 4.41509 13.081 4.41602 10.0002V10.0001C4.41585 6.91501 6.91401 4.41677 9.99919 4.41663L9.99945 4.41663C13.0788 4.41327 15.5826 6.91448 15.5827 9.99976C15.5828 13.0849 13.0803 15.5842 9.99955 15.5833Z" stroke="#FFB04F" stroke-opacity="0.5" stroke-width="0.5" style="mix-blend-mode:screen"/>
<g clip-path="url(#clip0_3454_97556)">
<path d="M8.64054 9.44148L9.99993 8.08211L11.36 9.44218L12.151 8.65118L9.99993 6.5L7.84957 8.65046L8.64054 9.44148ZM6.5 9.99989L7.29102 9.20886L8.08199 9.99983L7.29097 10.7909L6.5 9.99989ZM8.64054 10.5585L9.99993 11.9179L11.36 10.5579L12.1514 11.3485L12.151 11.3489L9.99993 13.5L7.84951 11.3496L7.84839 11.3485L8.64054 10.5585ZM11.918 10.0003L12.709 9.20931L13.5 10.0003L12.709 10.7913L11.918 10.0003Z" fill="white"/>
<path d="M10.8026 9.99955H10.8029L10.0003 9.1969L9.40712 9.79008H9.4071L9.33895 9.85826L9.19839 9.99885L9.19727 9.99994L9.19839 10.0011L10.0003 10.803L10.8029 10.0004L10.8033 9.99994L10.8026 9.99955Z" fill="white"/>
</g>
<defs>
<linearGradient id="paint0_linear_3454_97556" x1="9.9962" y1="4.16383" x2="9.9962" y2="15.8321" gradientUnits="userSpaceOnUse">
<stop stop-color="#F9AA4B"/>
<stop offset="1" stop-color="#F7931A"/>
</linearGradient>
<clipPath id="clip0_3454_97556">
<rect width="7" height="7" fill="white" transform="translate(6.5 6.5)"/>
</clipPath>
</defs>
</svg>
