<svg width="10" height="16" viewBox="0 0 10 16" fill="none" xmlns="http://www.w3.org/2000/svg">
<path d="M3.22697 10.3602C3.13487 9.73991 3.17325 9.18768 3.34211 8.70353C3.51096 8.20425 3.74123 7.75793 4.03289 7.36455C4.33991 6.95605 4.6546 6.58537 4.97697 6.25252C5.29934 5.90454 5.56798 5.57169 5.78289 5.25396C6.01316 4.92111 6.12829 4.58826 6.12829 4.2554C6.12829 3.78638 5.98246 3.43084 5.69079 3.18876C5.41447 2.94669 5.04605 2.82565 4.58553 2.82565C4.1557 2.82565 3.77193 2.92399 3.43421 3.12068C3.11184 3.31736 2.79715 3.567 2.49013 3.8696L0.625 2.1902C1.16228 1.56988 1.80702 1.07061 2.55921 0.692364C3.3114 0.314121 4.13268 0.125 5.02303 0.125C5.85197 0.125 6.58882 0.261167 7.23355 0.533501C7.89364 0.805836 8.41557 1.22947 8.79934 1.80439C9.18311 2.37932 9.375 3.11311 9.375 4.00576C9.375 4.56556 9.25987 5.06484 9.0296 5.5036C8.79934 5.92723 8.51535 6.32061 8.17763 6.68372C7.83991 7.04683 7.50987 7.40994 7.1875 7.77306C6.86513 8.12104 6.60417 8.50684 6.40461 8.93048C6.20504 9.33898 6.13596 9.81556 6.19737 10.3602H3.22697ZM4.70066 15.875C4.11732 15.875 3.63377 15.6783 3.25 15.2849C2.86623 14.8764 2.67434 14.3772 2.67434 13.7871C2.67434 13.1819 2.86623 12.6826 3.25 12.2893C3.63377 11.8808 4.11732 11.6765 4.70066 11.6765C5.28399 11.6765 5.76754 11.8808 6.15132 12.2893C6.55044 12.6826 6.75 13.1819 6.75 13.7871C6.75 14.3772 6.55044 14.8764 6.15132 15.2849C5.76754 15.6783 5.28399 15.875 4.70066 15.875Z" fill="#FFF3DB"/>
</svg>
