<svg width="25" height="24" viewBox="0 0 25 24" fill="none" xmlns="http://www.w3.org/2000/svg">
<path d="M12.4912 9C16.9095 9 20.4912 7.65685 20.4912 6C20.4912 4.34315 16.9095 3 12.4912 3C8.07293 3 4.49121 4.34315 4.49121 6C4.49121 7.65685 8.07293 9 12.4912 9Z" stroke="#040404" stroke-linecap="round" stroke-linejoin="round"/>
<path d="M4.49121 6V12C4.49121 12.7956 5.33407 13.5587 6.83436 14.1213C8.33465 14.6839 10.3695 15 12.4912 15C14.6129 15 16.6478 14.6839 18.1481 14.1213C19.6484 13.5587 20.4912 12.7956 20.4912 12V6" stroke="#040404" stroke-linecap="round" stroke-linejoin="round"/>
<path d="M4.49121 12V18C4.49121 18.7956 5.33407 19.5587 6.83436 20.1213C8.33465 20.6839 10.3695 21 12.4912 21C14.6129 21 16.6478 20.6839 18.1481 20.1213C19.6484 19.5587 20.4912 18.7956 20.4912 18V12" stroke="#040404" stroke-linecap="round" stroke-linejoin="round"/>
</svg>
