<svg width="31" height="30" viewBox="0 0 31 30" fill="none" xmlns="http://www.w3.org/2000/svg">
<path d="M5.92578 15C5.92578 14.3096 6.48543 13.75 7.17578 13.75H25.9258C26.6161 13.75 27.1758 14.3096 27.1758 15C27.1758 15.6904 26.6161 16.25 25.9258 16.25H7.17578C6.48543 16.25 5.92578 15.6904 5.92578 15ZM5.92578 8.75C5.92578 8.05964 6.48543 7.5 7.17578 7.5H18.4258C19.1161 7.5 19.6758 8.05964 19.6758 8.75C19.6758 9.44036 19.1161 10 18.4258 10H7.17578C6.48542 10 5.92578 9.44036 5.92578 8.75ZM5.92578 21.25C5.92578 21.9404 6.48543 22.5 7.17578 22.5H13.7195C14.4099 22.5 14.9695 21.9404 14.9695 21.25C14.9695 20.5596 14.4099 20 13.7195 20H7.17578C6.48542 20 5.92578 20.5596 5.92578 21.25Z" fill="#F0FFFF"/>
<path d="M25.9258 13.75H7.17578C6.48543 13.75 5.92578 14.3096 5.92578 15C5.92578 15.6904 6.48543 16.25 7.17578 16.25H25.9258C26.6161 16.25 27.1758 15.6904 27.1758 15C27.1758 14.3096 26.6161 13.75 25.9258 13.75Z" fill="#0080FF"/>
</svg>
