<svg width="25" height="25" viewBox="0 0 22 22" fill="none" xmlns="http://www.w3.org/2000/svg">
<path d="M4.00832 6.65899C4.01955 6.5474 4.00451 6.43473 3.9644 6.33C3.92428 6.22526 3.86022 6.13137 3.77732 6.05582L2.06498 3.97774V3.66699H7.37982L11.4883 12.7466L15.1 3.66699H20.1673V3.97774L18.7034 5.39032C18.6414 5.43822 18.5935 5.50206 18.5649 5.57504C18.5364 5.64801 18.5281 5.72738 18.5412 5.80466V16.1942C18.5281 16.2714 18.5364 16.3508 18.5649 16.4238C18.5935 16.4968 18.6414 16.5606 18.7034 16.6085L20.1334 18.022V18.3337H12.9431V18.0229L14.4244 16.5746C14.5702 16.4279 14.5702 16.3848 14.5702 16.1612V7.76266L10.4525 18.2988H9.89698L5.10282 7.76266V14.8247C5.0634 15.1207 5.16148 15.4205 5.36865 15.635L7.29457 17.989V18.2988H1.83398V17.989L3.75898 15.635C3.86084 15.5287 3.93643 15.4001 3.97972 15.2594C4.02301 15.1187 4.03281 14.9698 4.00832 14.8247V6.65899Z" fill="#10191C"/>
</svg>
