<svg width="25" height="25" viewBox="0 0 25 25" fill="none" xmlns="http://www.w3.org/2000/svg">
<path d="M21.9894 7.6345C22.0052 7.84822 22.0053 8.06072 22.0053 8.27321C22.0053 14.7764 17.0555 22.27 8.00973 22.27C5.22284 22.27 2.63379 21.4627 0.455078 20.0607C0.850763 20.1059 1.23179 20.1218 1.64335 20.1218C3.85747 20.1271 6.00889 19.3868 7.75082 18.02C6.72427 18.0014 5.72914 17.6627 4.90438 17.0512C4.07963 16.4397 3.46642 15.5859 3.15038 14.6091C3.45447 14.6542 3.75978 14.6848 4.07975 14.6848C4.52062 14.6848 4.96393 14.6237 5.37549 14.5175C4.26142 14.2925 3.25965 13.6887 2.54051 12.8085C1.82137 11.9284 1.42926 10.8264 1.43086 9.68986V9.6288C2.08667 9.99395 2.84751 10.2223 3.65353 10.2529C2.97829 9.80415 2.42461 9.19528 2.0419 8.48057C1.65918 7.76585 1.45933 6.96752 1.46017 6.15679C1.46017 5.24329 1.7032 4.40551 2.12941 3.67521C3.36549 5.19569 4.90715 6.43958 6.65455 7.32633C8.40196 8.21307 10.3161 8.7229 12.2731 8.82278C12.1974 8.4564 12.151 8.07659 12.151 7.69556C12.1507 7.04947 12.2777 6.40966 12.5248 5.81269C12.7719 5.21572 13.1342 4.6733 13.5911 4.21645C14.0479 3.7596 14.5903 3.39726 15.1873 3.15017C15.7843 2.90307 16.4241 2.77605 17.0702 2.77637C18.4868 2.77637 19.7655 3.36989 20.6643 4.3298C21.7656 4.11683 22.8217 3.7148 23.7858 3.14152C23.4187 4.27828 22.6498 5.2422 21.623 5.8527C22.5997 5.74129 23.5543 5.48443 24.4551 5.09064C23.7823 6.07142 22.9487 6.93148 21.9894 7.6345Z" fill="#040404"/>
</svg>
