<svg width="25" height="25" viewBox="0 0 25 25" fill="none" xmlns="http://www.w3.org/2000/svg">
<path d="M23.9668 6.76381C23.8303 6.25705 23.5633 5.7949 23.1926 5.42336C22.8219 5.05182 22.3604 4.78384 21.8539 4.64611C19.9761 4.13047 12.4634 4.12208 12.4634 4.12208C12.4634 4.12208 4.9519 4.11369 3.07283 4.60654C2.5667 4.75061 2.1061 5.02237 1.73525 5.39574C1.36441 5.7691 1.09577 6.23153 0.955126 6.73863C0.459877 8.6165 0.45508 12.5113 0.45508 12.5113C0.45508 12.5113 0.450283 16.4254 0.941935 18.2841C1.21774 19.3117 2.02717 20.1236 3.05604 20.4006C4.9531 20.9162 12.4454 20.9246 12.4454 20.9246C12.4454 20.9246 19.9581 20.933 21.836 20.4413C22.3426 20.3038 22.8046 20.0365 23.1762 19.6657C23.5478 19.2949 23.8162 18.8336 23.9549 18.3272C24.4513 16.4506 24.4549 12.5569 24.4549 12.5569C24.4549 12.5569 24.4789 8.64168 23.9668 6.76381ZM10.0603 16.1196L10.0663 8.92468L16.3103 12.5281L10.0603 16.1196Z" fill="#040404"/>
</svg>
