<svg width="40" height="40" viewBox="0 0 40 40" fill="none" xmlns="http://www.w3.org/2000/svg">
<path d="M20 40C9 40 0 31 0 20C0 9 9 0 20 0C31 0 40 9 40 20C40 31 31 40 20 40Z" fill="#F3BA2F"/>
<path d="M15.32 18.06L20 13.38L24.68 18.06L27.36 15.38L20 8L12.62 15.38L15.32 18.06ZM8 20L10.68 17.32L13.38 20L10.7 22.68L8 20ZM15.32 21.94L20 26.62L24.68 21.94L27.36 24.62L20 32L12.62 24.62L15.32 21.94ZM26.56 20L29.24 17.32L31.92 20L29.24 22.68L26.56 20Z" fill="white"/>
<path d="M22.7602 20L20.0002 17.24L17.9403 19.32L17.7003 19.56L17.2603 20L20.0202 22.76L22.7602 20Z" fill="white"/>
</svg>